# xmcd CD database file
#
# Track frame offsets:
#	150
#	14727
#	31020
#	48270
#	69504
#	82429
#	95872
#	106607
#	123900
#	134485
#	150426
#	164270
#	178849
#
# Disc length: 2738 seconds
#
# Revision: 0
# Processed by: cddbd v1.5.2PL0 Copyright (c) Steve Scherf et al.
# Submitted via: CDex 1.70beta2
#
DISCID=ab0ab00d
DTITLE=Robin McKelle - introducing
DYEAR=2006
DGENRE=Jazz
TTITLE0=Something's Gotta Give
TTITLE1=Bei Mir Bist Du Schon
TTITLE2=Night and Day
TTITLE3=For All We Know
TTITLE4=You Brought A New Kind Of Love
TTITLE5=Dream
TTITLE6=Yes, My Darling Daughter
TTITLE7=Deep In A Dream
TTITLE8=I've Got The World On A String
TTITLE9=Come Rain Or Come Shine
TTITLE10=The Lamp Is Low
TTITLE11=On The Sunny Side Of The Street
TTITLE12=Cottontail (inst)
EXTD=YEAR: 2006
EXTT0=
EXTT1=
EXTT2=
EXTT3=
EXTT4=
EXTT5=
EXTT6=
EXTT7=
EXTT8=
EXTT9=
EXTT10=
EXTT11=
EXTT12=
PLAYORDER=
